<svg width="160" height="55" viewBox="0 0 160 55" fill="none" xmlns="http://www.w3.org/2000/svg">
<path fill-rule="evenodd" clip-rule="evenodd" d="M151.688 0H142.953L124.562 21.9512C121.596 12.248 112.612 5.19531 101.991 5.19531C89.749 5.19531 79.6826 14.5645 78.498 26.5605H71.1709C69.9326 14.6211 59.8926 5.3125 47.6904 5.3125C37.6963 5.3125 29.1533 11.5566 25.708 20.375L8.73535 0.117188H7.08301H0V52.5293H7.08301V8.75781L21.1816 25.9551L23.373 28.8027L24.0879 29.6133C24.3848 42.4648 34.8379 52.791 47.6904 52.791C59.9805 52.791 70.0781 43.3477 71.1963 31.2832H78.4961C79.668 43.291 89.7402 52.6738 101.991 52.6738C114.066 52.6738 124.024 43.5586 125.43 31.7969L128.197 28.5684L130.13 26.207H130.204L132.66 23.209L151.396 52.2031L160 52.2285L141.783 24.1094L141.799 24.0996L137.49 17.3184L151.688 0ZM98.6855 20.3047C92.665 20.3047 87.5215 24.082 85.4707 29.4062L85.4648 28.9355C85.4648 19.6992 92.9004 12.2773 101.991 12.2773C111.081 12.2773 118.518 19.6992 118.518 28.9355C118.518 35.4434 114.823 41.0527 109.46 43.7949C110.631 42.416 111.545 40.8105 112.128 39.0527C112.597 37.6367 112.851 36.123 112.851 34.5488C112.851 26.6816 106.509 20.3047 98.6855 20.3047ZM41.8096 44.6211C39.3135 42.0547 37.7744 38.541 37.7744 34.666C37.7744 26.7988 44.1162 20.4219 51.9395 20.4219C57.1318 20.4219 61.6719 23.2305 64.1387 27.4199C63.3242 18.957 56.2383 12.3945 47.6904 12.3945C38.5996 12.3945 31.1641 19.8164 31.1641 29.0527C31.1641 36.1855 35.6006 42.2383 41.8096 44.6211ZM63.7275 50.7656C64.2607 50.3848 64.7773 49.9824 65.2764 49.5586C66.0225 48.9238 66.7295 48.2441 67.3916 47.5234C68.5068 48.1738 69.7646 48.6855 71.1426 49.0156C72.375 49.3105 73.7031 49.459 75.1123 49.4316C77.9082 49.3789 80.3604 48.6445 82.3555 47.4746C83.4658 48.6719 84.6982 49.7559 86.0322 50.7031C83.0586 52.793 79.3037 54.0742 75.2021 54.1523C72.71 54.2012 70.3281 53.7988 68.1582 53.0332C66.5508 52.4648 65.0605 51.6973 63.7275 50.7656Z" fill="white"/>
</svg>
